<?xml version="1.0" encoding="UTF-8"?>
<svg version="1.1" viewBox="0 0 1440 1440" width="1280" height="1280" xmlns="http://www.w3.org/2000/svg">
<path transform="translate(0)" d="m0 0h1440v1440h-1440z" fill="#F7F7F7"/>
<path transform="translate(640,272)" d="m0 0h29l12 4 11 6 11 9 9 12 9 13 7 5 15 2 60 1 13 4 9 6 7 6 7 11 5 12 72 1 12 3 11 6 10 10 6 10 4 10 1 6v714l-3 14-6 10-9 10-11 7-13 4-416 1h-100l-15-2-16-8-8-7-7-10-4-10-1-5-1-14v-698l2-15 7-14 9-10 10-7 11-4 6-1h72l1-7 5-10 8-10 11-8 11-4 5-1 18-1h32l18-1 8-4 3-1 2-4 8-12 9-11 11-9 12-6z" fill="#F7F7F7"/>
<path transform="translate(640,272)" d="m0 0h29l12 4 11 6 11 9 9 12 9 13 7 5 15 2 60 1 13 4 9 6 7 6 7 11 5 12 72 1 12 3 11 6 10 10 6 10 4 10 1 6v714l-3 14-6 10-9 10-11 7-13 4-416 1h-100l-15-2-16-8-8-7-7-10-4-10-1-5-1-14v-698l2-15 7-14 9-10 10-7 11-4 6-1h72l1-7 5-10 8-10 11-8 11-4 5-1 18-1h32l18-1 8-4 3-1 2-4 8-12 9-11 11-9 12-6zm-224 136v682h360l15-3 11-6 6-5 7-11 4-14 1-9v-20l-2-15-2-14 24-7 12-6 15-10 10-10 7-10 5-12 2-7 1-8v-515h-59l-8 8-12 7-10 3-11 1h-280l-10-2-14-7-10-9-1-1z" fill="#DBA65D"/>
<path transform="translate(640,272)" d="m0 0h29l12 4 11 6 11 9 9 12 9 13 7 5 15 2 60 1 13 4 9 6 7 6 7 11 5 12 72 1 12 3 11 6 10 10 6 10 4 10 1 6v714l-3 14-6 10-9 10-11 7-13 4-416 1h-100l-15-2-16-8-8-7-7-10-4-10-1-5-1-14v-698l2-15 7-14 9-10 10-7 11-4 6-1h72l1-7 5-10 8-10 11-8 11-4 5-1 18-1h32l18-1 8-4 3-1 2-4 8-12 9-11 11-9 12-6zm-245 99-13 4-11 8-7 9-5 11-2 7-1 358v223l1 131 3 13 7 10 6 7 11 7 8 2h318l196 1 16-2 12-6 8-7 6-9 4-13v-720l-3-10-6-8-6-5-5-5-5-3-7-3h-76l-1 15-4 12v3h61l-1 511-2 21-5 32-7 24-8 19-9 14-9 11-11 13-19 19-11 9-11 10-14 8-8 3-10 1-40 1h-324l-1-696h62l-3-9-2-9-1-12zm21 37v682h360l15-3 11-6 6-5 7-11 4-14 1-9v-20l-2-15-2-14 24-7 12-6 15-10 10-10 7-10 5-12 2-7 1-8v-515h-59l-8 8-12 7-10 3-11 1h-280l-10-2-14-7-10-9-1-1z" fill="#1B1817"/>
<path transform="translate(1029,417)" d="m0 0h20l22 2 8 4 7 7 3 7v35l-6 156-3 74-5 132-3 64-2 9-7 15-6 11-3 8-8 16-5 9-4 10-8 16h-5l-4-8-5-13-6-15-5-12-8-20-5-14-3-5-1-4v-25l5-139 4-94 4-107 4-89 2-14 6-9 10-6z" fill="#4CBDF6"/>
<path transform="translate(642,279)" d="m0 0h26l14 4v2l5 2 15 12 13 19 5 6 8 4 8 2 63 1 10 2 7 2v2l5 2 4 2 7 9 3 6 1 18-2 9-1 2h-2l-2 5-7 9h-2l-1 3-6 4-8 3-17 2h-291l-9-3-7-4-7-13-1-7v-18l4-11 8-11 7-6 4-3 16-4 61-1 10-3 6-4 7-7 10-16 12-11 10-6z" fill="#7C7C7B"/>
<path transform="translate(900,417)" d="m0 0h1v7l5 2 2 2 1 10 1 45 1 84 1 148v227l-3 49-3 39-4 28-5 15-6 11-9 10-13 8-15 4-28 3-41 2h-225l-96-1-35-1-10-1-1-1v-7l2-1h-10l1-2h324l40-1 10-1 12-5 11-7 11-10 11-9 22-22 9-11 9-12 9-15 8-21 5-18 5-32 2-21z" fill="#A07744"/>
<path transform="translate(1029,417)" d="m0 0h20l22 2 8 4 7 7 3 7v35l-6 156-3 74-5 132-3 64-2 9-7 15-6 11-3 8-8 16-5 9-4 10-8 16h-5l-4-8-5-13-6-15-5-12-8-20-5-14-3-5-1-4v-25l5-139 4-94 4-107 4-89 2-14 6-9 10-6zm-19 74-1 1-1 60-1 30-1 4-1 21-2 81v18h-2l-2 42-1 40-1 13-2 52v40l7-1 5-2 16-2h9l18 3 11 5h3l1-9 1-22 1-9 3-75 1-54 1-27 1-6 1-20 1-51 1-26 1-5 2-70v-28l-45-3z" fill="#191615"/>
<path transform="translate(939,385)" d="m0 0 5 3 5 7 3 10v720l-4 13-8 11-9 7-9 4-16 2-196-1h-318l-10-3-11-8-3-5 75 1 160 1h53l244-2 10-2 10-5 8-7 6-9 4-11 1-18z" fill="#A27945"/>
<path transform="translate(996,715)" d="m0 0h2v58l-2 27-2 2v15l1 24v52l11-3 1-1 16-2h9l18 3 14 6 1-31 1-9h2v-6l4-1v23l-1 32-7 16-7 13-3 8-8 16-5 9-4 10-8 16h-5l-4-8-5-13-6-15-5-12-8-20-5-14-3-5-1-4v-25l2-56 2-4 1-29 1-3 1-65z" fill="#161314"/>
<path transform="translate(1059,493)" d="m0 0h10l10 1v28l-2 70-1 5-1 26-1 51-1 20-1 6-1 27-1 54-3 75-1 9-1 22-1 9-5-1-9-4-11-2v-1l7-1 1-21 4-67 3-56 4-68 6-101 3-44 1-35-9-1z" fill="#5286A3"/>
<path transform="translate(390,372)" d="m0 0h75v5l-36 1-18 1-15 3-10 5-6 5-5 9-1 9-3 125-2 74-2 90-2 64-2 89-3 62-1 14h-1l-1-12v-134l1-374 3-10 5-9 7-8 9-6z" fill="#F6F7F7"/>
<path transform="translate(557,617)" d="m0 0h270l5 2 1 3v7l-2 4-2 1-94 1h-175l-5-2-3-3-1-5 3-6z" fill="#737173"/>
<path transform="translate(632,944)" d="m0 0h196l5 4 1 7-3 5-2 1-16 1h-248l-9-1-4-4v-8l3-4z" fill="#847F78"/>
<path transform="translate(557,726)" d="m0 0h266l8 1 2 4-1 10-3 2-265 1-9-1-3-4-1-6 3-5z" fill="#767371"/>
<path transform="translate(584,508)" d="m0 0h244l4 2 1 2v9l-2 3-6 1h-269l-4-4v-8l3-4z" fill="#827E78"/>
<path transform="translate(555,836)" d="m0 0h275l3 3v8l-2 4-2 1h-273l-4-4-1-6 3-5z" fill="#727174"/>
<path transform="translate(834,366)" d="m0 0m1-5 2 4 1 15-3 13-5 9-5 6-6 5-12 6-6 2-64 1h-144l-14 1-2 2 3 1 212 1v1h-280v-1l8-1-6-1v-2l-12-3-2-1v-2l-6-2-9-8h3l9 3h291l17-2 10-4 8-7 7-10 1-2h2l2-11z" fill="#495157"/>
<path transform="translate(1035,424)" d="m0 0h25l10 2 8 7 2 4v41l-1 10h-22l-47-3v-13l1-29 1-9 4-4 10-5z" fill="#934E3C"/>
<path transform="translate(523,466)" d="m0 0 5 1 4 4v6l-9 12-2 3 1 7 1 9v25l-4 11-7 6-5 2h-36l-10-5-5-6-1-4v-41l4-5h6v2l4 2 11 11 3 4 4-1 8-10 10-13 14-18z" fill="#4CBCF6"/>
<path transform="translate(520,576)" d="m0 0h8l4 3v7l-9 12-2 3 2 16v25l-4 9-8 7-8 2h-30l-9-3-6-5-3-8v-39l2-3h3v-2l7 1 7 8 10 11h2l8-11 12-15 10-13z" fill="#4CBCF6"/>
<path transform="translate(522,684)" d="m0 0h5l5 5v6l-8 11-3 4 1 6 1 9v26l-5 10-9 6-4 1h-33l-8-3-6-5-3-7v-39l5-5 8 3 10 10 5 6 4-1 12-15 10-13 8-10z" fill="#4CBCF6"/>
<path transform="translate(523,793)" d="m0 0 5 1 4 4v6l-6 8-5 7 1 6 1 17v16l-4 10-7 6-8 2h-32l-8-3-5-4-4-8-1-35 3-7 4-1 8 4 10 10 5 6h2l12-16 8-10 10-13 5-5z" fill="#4CBCF6"/>
<path transform="translate(520,903)" d="m0 0h8l4 4v7l-9 11-1 2 1 18v20l-4 10-8 7-6 2h-34l-10-5-4-5-2-5-1-34 3-6 1-1h7l10 9 7 8 4 2 10-13 8-10 4-7 5-5z" fill="#4CBCF6"/>
<path transform="translate(380,1151)" d="m0 0h6l7 1 6 1h5v2l8-1 4 1h13l6-1 5 1 3-1 4 1 18-2 2 1 9-1h3 254l7 1h3 7l3-1v2l7-1v2l8-2 3 1 18-1v2l8-1h30l31 1 1 4-328 1h-139l-10-3z" fill="#AC814A"/>
<path transform="translate(939,385)" d="m0 0 5 3 5 7 3 10v456h-1l-1-364-3-1-1 39v228l-1 1-1 37v37l-1 7h-2l-1-442z" fill="#9A6641"/>
<path transform="translate(1069,493)" d="m0 0h12l1 14 2 3 2-12h1v27l-4 103-3 74-5 132-3 64h-1v-48l-2 1-1 5h-1v-27l2-48 1-54 1-27 1-6 1-20 1-51 1-26 1-5 2-70 1-28h-10z" fill="#292828"/>
<path transform="translate(1022,894)" d="m0 0h14l9 1v2l8 1 9 4-1 5-5 14-10 19-5 10h-27l-5-12-7-18-4-10-2-4v-6l8-3z" fill="#DAA55D"/>
<path transform="translate(886,957)" d="m0 0h1l-1 9-7 24-4 10-12 19-13 16-7 7-7 8-9 9h-2l1-13v-25l-2-14v-10l18-6 16-8 9-6 10-9 6-7z" fill="#DAA65F"/>
<path transform="translate(900,417)" d="m0 0h1v7l2 1 1 4 1 71v177l1 10v155l-1 28-1 18-1 4-1 21-1 5h-1z" fill="#A87A48"/>
<path transform="translate(949,397)" d="m0 0 2 1 2 6 1 9h2l1 5v35l-1 33v91l1 33v30l-1 16-1 3v256l1 115-2 72-1 21h-1l-1-718z" fill="#2B2829"/>
<path transform="translate(957,400)" d="m0 0 2 3v529l-2 10-1 13h-1l-1-42v-256l1-1 1-24v-32l-1-27v-98l1-31v-31h-2l-1-2v-7l1 3h3z" fill="#131418"/>
<path transform="translate(946,494)" d="m0 0 1 2h2l1-2 1 3v366l-2 3-1-1-2 2-1-124v-220z" fill="#AD834A"/>
<path transform="translate(1e3 515)" d="m0 0h1l1 35 1 9 2 3 1-12 1-29h1v31l-1 30-1 4-1 21-2 81-1 18h-2v17l-2 65-1 13-2 52h-1l-1-12-1-24v-16l2-1 2-27 1-58h-2l-1 4-1 65-1 3-1 29-2 3v-27l3-76 4-99z" fill="#242424"/>
<path transform="translate(420,1099)" d="m0 0h284l13 2v3h3v2h-132l-12-1h-23-4-24l-11-1-37-1h-29l-9 1h-20l1 2 8 1v1h-9l-1-1v-7z" fill="#AD834A"/>
<path transform="translate(523,793)" d="m0 0 5 1 4 4v6l-6 8-5 7h-2l-2 4-14 18-9 12-6 5-3 1-9-6-7-8-13-14-2-5 3-7 4-1 8 4 10 10 5 6h2l12-16 8-10 10-13 5-5z" fill="#2C2A2B"/>
<path transform="translate(523,466)" d="m0 0 5 1 4 4v6l-9 12-11 13-12 16-8 10-7 4-6-4-12-12-6-7-5-5-1-2v-6l4-5h6v2l4 2 11 11 3 4 4-1 8-10 10-13 14-18z" fill="#2C2A2B"/>
<path transform="translate(520,903)" d="m0 0h8l4 4v7l-18 22-14 18-8 10-5 4-5-1-20-20-4-5-3-3-1-4 3-6 1-1h7l10 9 7 8 4 2 10-13 8-10 4-7 5-5z" fill="#2C292B"/>
<path transform="translate(520,576)" d="m0 0h8l4 3v7l-9 12-11 13-12 16-9 11-3 2-7-1-17-17-6-7-3-2v-8l2-3h3v-2l7 1 7 8 10 11h2l8-11 12-15 10-13z" fill="#2C292A"/>
<path transform="translate(522,684)" d="m0 0h5l5 5v6l-8 11-3 4h-2l-2 4-11 14-10 13-4 5-6 4-5-2-16-16-7-8-3-3v-7l5-5 8 3 10 10 5 6 4-1 12-15 10-13 8-10z" fill="#2C292A"/>
<path transform="translate(555,836)" d="m0 0h275v1l-65 1 13 1h47l3-1-1 11h-14l-9-2-125-1-25-2 4-1v-2l6-1 37-1 7-1-153-1z" fill="#7C7C7B"/>
<path transform="translate(557,617)" d="m0 0h222l-4 3-12 1h-64l-29 1-9 3-19 2-13 1h-16l-1 1-42 1-13-2-1-2 4-1 3-1v-2h2v-3l-8-1z" fill="#837D74"/>
<path transform="translate(419,1105)" d="m0 0h25l290 2 50 1 1 3h-225l-96-1-35-1-1-1-8-1z" fill="#9A5C40"/>
<path transform="translate(642,279)" d="m0 0h26l14 4v2l5 2 10 8 2 3-7-2-11-7-13-4h-24l-13 4-11 6-7 6-10 14-6 9-7 6-8 4-3 1-15 1h-39l-18 2-12 5-8 7-7 11-3 10-2 17-2-4v-18l4-11 8-11 7-6 4-3 16-4 61-1 10-3 6-4 7-7 10-16 12-11 10-6z" fill="#F6F6F5"/>
<path transform="translate(385,1147)" d="m0 0h490l-4 2-67 1-74 1-45 1h-85l-137-1-66-1-13-1z" fill="#934D3C"/>
<path transform="translate(1069,493)" d="m0 0h12l1 14 2 3 2-12h1v27l-4 103-1 20-2 17-5 1v-34l2-83 2-55h-10z" fill="#252527"/>
<path transform="translate(643,300)" d="m0 0h15l9 6 4 7v10l-6 9-4 3h-2v2l-4 1h-7l-8-3v-2l-4-2-4-9v-10l3-6z" fill="#151315"/>
<path transform="translate(500,418)" d="m0 0 8 1 293 1v1l-64 1h-144l-14 1-2 2 3 1 212 1v1h-280v-1l8-1-6-1v-2l-12-3z" fill="#363536"/>
<path transform="translate(760,509)" d="m0 0h71l2 3v9l-2 3-6 1h-30l-76-1-31-1-8-2v-1l9-1 59-1 10-1 30-1 21 3 16 1h3l-1-3v-6l-10 1-8-1-12 2-22-1-6-1-9-1z" fill="#737172"/>
<path transform="translate(468,916)" d="m0 0h39l1 2-6 10-10 12-6 8-4-2-7-7-7-8-3-2h-8l1-5 5-5z" fill="#4CBCF4"/>
<path transform="translate(469,808)" d="m0 0h38l1 2-6 8-10 13-6 8-4-2-12-13-6-4-6-1 2-5 6-5z" fill="#4CBCF5"/>
<path transform="translate(1e3 515)" d="m0 0h1l1 35 1 9 2 3 1-12 1-29h1v31l-1 30-1 4-1 21-2 81-1 18h-1v-72l-2-4-2 9h-1v-22z" fill="#322E29"/>
<path transform="translate(1038,895)" d="m0 0h7v2l8 1 9 4-1 5-5 14-10 19-5 10h-7l-3-2 6-23 6-26 1-3h-6z" fill="#AC824A"/>
<path transform="translate(468,700)" d="m0 0h40l-4 7-10 12-7 9-4 1-15-16-8-3-2-1 6-7z" fill="#4CBBF3"/>
<path transform="translate(468,592)" d="m0 0h39l-2 4-10 13-9 12-4-2-15-16v-2l-7-1v2l-2-1 7-8z" fill="#4CBAF3"/>
<path transform="translate(835,366)" d="m0 0h1v8l-2 9-1 2h-2l-2 5-7 9h-2l-1 3-6 4-8 3-17 2h-291l-7-2v-1h304l9-1 10-5 7-6 4-6 5-8 2-4 1-6h2v-5z" fill="#727174"/>
<path transform="translate(467,484)" d="m0 0h40l-6 8-7 9-8 10-4-1-11-12-6-5v-2h-5l5-6z" fill="#4CBAF3"/>
<path transform="translate(815,631)" d="m0 0 6 1 8 1v1l-94 1h-175l-4-2 10-1h229z" fill="#958773"/>
<path transform="translate(952,900)" d="m0 0h1v15h2l1 115-2 72-1 21h-1z" fill="#313133"/>
<path transform="translate(845,372)" d="m0 0h73l9 2 4 4-3 1h-83z" fill="#F7F7F7"/>
<path transform="translate(573,731)" d="m0 0 13 2 3 2v3l-5 2 31 1 214 1v1l-265 1 4-1-1-3-6-4 2-4z" fill="#7F7D7A"/>
<path transform="translate(958,932)" d="m0 0h1v112l-1 23-2 7-1 21h-1v-35l1-43v-62l1-13z" fill="#101216"/>
<path transform="translate(649,306)" d="m0 0 9 1 5 5 1 2v8l-4 6-4 3h-8l-5-3-2-4h-2v-9l3-5 4-3z" fill="#F7F6F5"/>
<path transform="translate(1029,417)" d="m0 0h20l14 1v1l-33 1h-6l7 1 9-1h22l4 1 6 6-12-2h-25l-9 1-10 5-3 1-1 11-1 29-1 13h-1l-1-48h-2l1-6 5-7 10-6z" fill="#2C292A"/>
<path transform="translate(947,1118)" d="m0 0h4v12l-4 9-6 9-8 7-11 5h-15l1-4 7-3 10-6 4-2 3-3 5-2v-2l3-3 5-15h2z" fill="#AC814A"/>
<path transform="translate(716,321)" d="m0 0 10 6 10 3 63 1 10 2 7 2v2l5 2 3 4-5-1-15-5-15-1h-49l-14-3-8-7z" fill="#F7F7F7"/>
<path transform="translate(941,387)" d="m0 0 4 2 4 6 2 7v55h-2l-1-3-1 7-2-3-2-58z" fill="#AC834A"/>
<path transform="translate(907,428)" d="m0 0h1l1 10 1 45 1 84v147h-1l-1-106-1-56-1-18z" fill="#AE844B"/>
<path transform="translate(996,715)" d="m0 0h2v58l-2 27-2 2-1 14h-1v-29l1-3 1-65z" fill="#0A080A"/>
<path transform="translate(806,731)" d="m0 0h23l-2 6h-31-4-5l-3-2-4 2-4-1-4 1-20-2v-3h39z" fill="#7B7B7B"/>
<path transform="translate(902,425)" d="m0 0 4 1 1 1 1 17v75l-1 2h-2l-1-21-1-71z" fill="#A17945"/>
<path transform="translate(520,576)" d="m0 0h8l4 3v7l-9 12h-2v-2l-2-1-1-2 1-3-3 1-5 5-5 4-2-1 1-4 11-14z" fill="#151213"/>
<path transform="translate(523,793)" d="m0 0 5 1 4 4v6l-6 8-5 7h-2v2h-2v-4l-2-1 3-6v-4l-3 5-7 1 5-7 2-1 2-7z" fill="#171415"/>
<path transform="translate(522,684)" d="m0 0h5l5 5v6l-8 11-3 1-3-2 1-5v-3h-3l-2 4-6 5-2-1 6-10 9-10z" fill="#1D1E21"/>
<path transform="translate(706,1107)" d="m0 0h28l50 1 1 2h-80l-103-1v-1z" fill="#6D3F35"/>
<path transform="translate(520,903)" d="m0 0h8l4 4v7l-6 7-5 2-2 2-1-7-7 4h-3l1-4 3-2 3-7z" fill="#161313"/>
<path transform="translate(946,952)" d="m0 0 3 2-1 4h3l-1 11-2-1v10l-1 2h2l1-2 1 16-1 10h-2l-2 42h-1l-1-17 1-73z" fill="#AD834A"/>
<path transform="translate(523,466)" d="m0 0 5 1 4 4v6l-6 8h-2v-2l-2-1v-3l-5 2-7 8-3 1-1-5 13-17z" fill="#1D1E21"/>
<path transform="translate(1018,956)" d="m0 0h19l-3 10-5 12-4 2-4-12-3-7z" fill="#787979"/>
<path transform="translate(806,622)" d="m0 0 19 1 2-1 2 2-2 5h-44l-5-1 2-4 20-1z" fill="#7C7C7C"/>
<path transform="translate(1e3 498)" d="m0 0h2l1 3v36l-1 26-3-2-1-11v-36z" fill="#0A090B"/>
<path transform="translate(562,840)" d="m0 0h22l8 1v1l-5 1-2 5-8 1-21-1 1-2v-3h2z" fill="#7C7C7C"/>
<path transform="translate(1032,428)" d="m0 0h6l2 2-1 4-10 5-3 1-2 4-5 5-3-1v-8l6-8 5-3z" fill="#F8F8F8"/>
<path transform="translate(1008,521)" d="m0 0h1v31l-1 30-1 4-1 21-2 81-1 18h-1v-25l2-77 1-26 1-1z" fill="#4A6A7C"/>
<path transform="translate(994,694)" d="m0 0h1v25l-1 65-1 3-1 29-2 3v-27l3-76z" fill="#6C5C46"/>
<path transform="translate(741,957)" d="m0 0h91l-1 3-112-1v-1z" fill="#707073"/>
<path transform="translate(998,767)" d="m0 0h1v21l-1 13-2 52h-1l-1-12-1-24v-16l2-1 2-27z" fill="#191A1D"/>
<path transform="translate(554,946)" d="m0 0h10l-2 1v2l-5 3-1 3 2 1 34 1 1 2-24 1h-15l-2-3v-8z" fill="#706F73"/>
<path transform="translate(1019,425)" d="m0 0m-1 1m-1 1m-5 1 4 1-1 3h-2l-1 11-1 29-1 13h-1l-1-48h-2l1-6 2 1z" fill="#2C292A"/>
<path transform="translate(519,585)" d="m0 0 3 1 2 3 4 3-5 6h-2v-2l-2-1-1-2 1-3-3 1-5 5-5 4-2-1 1-4 7-9h3l1 2 3-1z" fill="#1D1E21"/>
<path transform="translate(1038,895)" d="m0 0h7v2h5l-4 1-1 12-6 22-3 7h-1l1-10 7-30 1-3h-6z" fill="#96593F"/>
<path transform="translate(523,685)" d="m0 0 7 1 2 3v6l-3 5h-6l-1-7-3-1 1-4z" fill="#110E0F"/>
<path transform="translate(999,629)" d="m0 0 2 1 1 3v16l-2 16-2 3-1-1v-28z" fill="#0E0D0F"/>
<path transform="translate(894,958)" d="m0 0 4 1 1 7-2 12-3 2h-3l-1-7 3-14z" fill="#AC824A"/>
<path transform="translate(752,732)" d="m0 0h30l3 1-1 2-4 2-4-1-4 1-20-2z" fill="#7C7C7C"/>
<path transform="translate(1008,494)" d="m0 0h1v27l-1 29-1 12h-1v-61l-1-5z" fill="#151619"/>
<path transform="translate(555,509)" d="m0 0h30l16 1v1l-14 1h-22l-8 1-1-1v7l-3 1-1-1v-6z" fill="#747476"/>
<path transform="translate(514,911)" d="m0 0 7 1 2 5 5 1-2 3-5 2-2 2-1-7-7 4h-3l1-4 3-2z" fill="#14161A"/>
<path transform="translate(523,466)" d="m0 0 5 1 3 3v6l-2-2-8 1-4 2-1-5 4-5z" fill="#141214"/>
<path transform="translate(1080,437)" d="m0 0 2 3 1 5v14l-2 24-1 5h-1z" fill="#2B2829"/>
<path transform="translate(1059,907)" d="m0 0 1 3-5 12-11 23-2-4 6-12 3-9 1-4h3l2-4z" fill="#9E6F43"/>
<path transform="translate(951,405)" d="m0 0h1v53l-1 15-3-1v-9l1-6h2z" fill="#9D6D44"/>
<path transform="translate(515,473)" d="m0 0 1 2 2 1 1 2-9 11-3 1-1-5z" fill="#1B1D20"/>
<path transform="translate(458,928)" d="m0 0h7l2 4-5 2-3 6-4-1-1-4 3-6z" fill="#1B1C1F"/>
<path transform="translate(416,1090)" d="m0 0 39 1v1l-14 1v1h-23z" fill="#131418"/>
<path transform="translate(694,297)" d="m0 0h6l9 12 7 10 2 7-4-4-11-17-8-6z" fill="#A08258"/>
<path transform="translate(459,818)" d="m0 0 6 2v2l-4 1v2h-2l1 8-4-2-2-5 3-7z" fill="#202225"/>
<path transform="translate(460,600)" d="m0 0h5l1 3-4 2-4 8h-3v-8l2-3h3z" fill="#1D2023"/>
<path transform="translate(554,946)" d="m0 0h10l-2 1v2l-5 3-2 6-2 1-1-2v-8z" fill="#737172"/>
<path transform="translate(519,806)" d="m0 0h2v3h2l2 4-4 6h-2v2h-2v-4l-2-1 3-6z" fill="#17191C"/>
<path transform="translate(460,709)" d="m0 0 6 2-1 2-5 4-1 5-4-1v-7z" fill="#1D1F23"/>
<path transform="translate(459,491)" d="m0 0h6v2h2l-1 2-6 2-1 3v5l-3-1-1-2v-6z" fill="#1E2125"/>
<path transform="translate(1029,417)" d="m0 0h20l14 1v1l-33 1-8-1v-1z" fill="#64584A"/>
<path transform="translate(957,601)" d="m0 0h2l-1 39-2-2v-36z" fill="#111317"/>
<path transform="translate(554,520)" d="m0 0 20 1 8 1v1l-13 1h-15z" fill="#737173"/>
<path transform="translate(519,585)" d="m0 0 3 1 2 3 4 3-5 6h-2v-2l-2-1-1-2 1-3-2-2z" fill="#1A1B1D"/>
<path transform="translate(829,837)" d="m0 0h3l1 2v8l-2 3-4-1-1-4z" fill="#79736E"/>
<path transform="translate(521,696)" d="m0 0h2v2l5 2-5 7-5-1v-5z" fill="#1A1B1D"/>
<path transform="translate(1024,419)" d="m0 0h47v1l-31 1-14 1-3-2z" fill="#1A1819"/>
<path transform="translate(830,510)" d="m0 0h2l1 2v9l-2 2v-2h-6l3-1-1-3 2-6z" fill="#77736F"/>
<path transform="translate(958,932)" d="m0 0h1v24l-3-1v-13z" fill="#080608"/>
<path transform="translate(838,1059)" d="m0 0 2 2-7 6-3 3-4-1 8-9 4 1z" fill="#AD834A"/>
<path transform="translate(1014,423)" d="m0 0 3 1h1l3 1-7 5h-3l-3 3 1-5z" fill="#1C1613"/>
<path transform="translate(837,1046)" d="m0 0v3l-10 10h-2l2-9 5 1z" fill="#F1E4D2"/>
<path transform="translate(1059,907)" d="m0 0 1 3-5 12h-3l-1-4 1-2h3l2-4z" fill="#996E43"/>
<path transform="translate(476,371)" d="m0 0h1v23l-3-3z" fill="#B28951"/>
<path transform="translate(1046,898)" d="m0 0h1v17h-3l-1 3 1-8z" fill="#A17945"/>
<path transform="translate(1075,652)" d="m0 0h1v6l3-1v9h-4z" fill="#080608"/>
<path transform="translate(817,341)" d="m0 0 6 1 2-1 5 6-1 3-11-7z" fill="#B18C59"/>
<path transform="translate(830,401)" d="m0 0 1 2-2 4-7 6-6 2 3-3h2l2-4h2l2-4z" fill="#2B2829"/>
<path transform="translate(516,802)" d="m0 0 2 4-3 5-7 1 5-7z" fill="#101216"/>
<path transform="translate(828,619)" d="m0 0h2l2 4v9l-6-1 3-3v-4z" fill="#4F5558"/>
<path transform="translate(554,510)" d="m0 0h9v1h-8l1 8-3 1-1-1v-6z" fill="#5C6065"/>
<path transform="translate(869,1023)" d="m0 0 2 1-1 5-4 2-2-1 1-4z" fill="#AD834A"/>
<path transform="translate(554,946)" d="m0 0h10v1h-9l-1 10h-2v-8z" fill="#52575B"/>
<path transform="translate(1038,932)" d="m0 0 1 4-3 8-3 3 1-9h2z" fill="#A27A45"/>
<path transform="translate(828,728)" d="m0 0 5 3v6l-1 2-3-1 2-6-4-2z" fill="#5E5C55"/>
<path transform="translate(486,333)" d="m0 0 2 1-12 12v-3l6-7z" fill="#40372E"/>
<path transform="translate(694,297)" d="m0 0h6l3 4-1 3-6-4z" fill="#B08953"/>
<path transform="translate(644,284)" d="m0 0h14v2l-7 1-7-1z" fill="#7B7571"/>
<path transform="translate(1030,972)" d="m0 0 1 2-4 6h-2l-1-6 5-1z" fill="#5C6064"/>
<path transform="translate(553,621)" d="m0 0h1l1 7 1 4-4-2-1-5z" fill="#63635F"/>
</svg>
